<svg
  xmlns="http://www.w3.org/2000/svg"
  aria-hidden="true"
  style="position:absolute;width:0;height:0;overflow:hidden"
><defs><symbol id="icon-antenna" viewBox="0 0 32 32"><path
        fill="#212121"
        d="m30.773 22.098-8.443-8.505.937-4.615c.242.094.499.144.758.146h.006a2.159 2.159 0 1 0-2.008-1.435l-4.96.605L8.972.161a.534.534 0 0 0-.377-.16.532.532 0 0 0-.373.155L6.709 1.66a.534.534 0 0 0 0 .754l.814.826a14.943 14.943 0 0 0 2.519 17.663.513.513 0 0 0 .146.098c-.034.18-.051.364-.052.547v6.187h-6.4a2.67 2.67 0 0 0-2.667 2.667v1.067c0 .295.239.533.533.533h24.533a.533.533 0 0 0 .533-.533v-1.067a2.67 2.67 0 0 0-2.667-2.667h-6.4v-2.742a15.09 15.09 0 0 0 3.049.32 14.854 14.854 0 0 0 7.04-1.783l.818.823a.534.534 0 0 0 .377.16.532.532 0 0 0 .373-.155l1.513-1.504a.534.534 0 0 0 0-.754zM23.28 6.233a1.066 1.066 0 1 1 .752 1.822h-.003a1.067 1.067 0 0 1-.747-1.823h-.002zm-1.256 3.505-.598 2.946-1.175-1.182 1.774-1.763zm-.605-.902-1.92 1.909-1.485-1.493 3.405-.415zM24.004 28.8a1.6 1.6 0 0 1 1.6 1.6v.533H2.137V30.4a1.6 1.6 0 0 1 1.6-1.6h20.267zm-7.467-2.133v1.067h-5.333v-1.067h5.333zM11.204 25.6v-4.053c0-1.294 1.196-2.347 2.667-2.347s2.667 1.053 2.667 2.347V25.6h-5.333zm6.4-1.696v-2.357c0-1.882-1.675-3.413-3.733-3.413a3.8 3.8 0 0 0-3.281 1.786A13.87 13.87 0 0 1 8.311 4.033l18.602 18.708a13.818 13.818 0 0 1-9.309 1.163zm11.289-.684L7.836 2.039l.755-.752 7.935 7.98c.004 0 .006.007.01.01l13.115 13.191-.757.752z"
        style="fill:var(--color1, #212121)"
      /><path
        fill="#2196f3"
        d="M13.876 20.267h-.005a1.6 1.6 0 1 0-.004 3.2h.005a1.6 1.6 0 1 0 .004-3.2zm.373 1.978a.534.534 0 0 1-.752-.756.534.534 0 0 1 .373-.155.532.532 0 0 1 .373.911h.005z"
        style="fill:var(--color2, #2196f3)"
      /></symbol><symbol id="icon-astronaut" viewBox="0 0 32 32"><path
        fill="#2196f3"
        d="M31.974 4.524a.534.534 0 0 0-.43-.363l-1.91-.278-.855-1.731c-.179-.365-.777-.365-.956 0l-.855 1.731-1.91.278a.535.535 0 0 0-.296.91l1.383 1.348-.326 1.903c-.034.2.048.402.212.522a.53.53 0 0 0 .562.04l1.709-.899 1.709.899a.536.536 0 0 0 .775-.563l-.326-1.903 1.383-1.348a.536.536 0 0 0 .135-.547zm-2.463 1.327a.534.534 0 0 0-.153.472l.191 1.114-1-.526a.533.533 0 0 0-.498 0l-1.001.526.191-1.114a.534.534 0 0 0-.153-.472l-.81-.789 1.119-.163a.532.532 0 0 0 .402-.292l.5-1.013.5 1.013a.535.535 0 0 0 .402.292l1.119.163-.809.789zM26.134 20.522h-1.067v1.067h1.067v-1.067zM26.134 22.656h-1.067v1.067h1.067v-1.067zM27.2 21.589h-1.067v1.067H27.2v-1.067zM25.067 21.589H24v1.067h1.067v-1.067zM22.4 26.389h-1.067v1.067H22.4v-1.067zM22.4 28.522h-1.067v1.067H22.4v-1.067zM23.467 27.456H22.4v1.067h1.067v-1.067zM21.333 27.456h-1.067v1.067h1.067v-1.067zM16 24.256h-1.067v1.067H16v-1.067zM16 26.389h-1.067v1.067H16v-1.067zM17.067 25.322H16v1.067h1.067v-1.067zM14.933 25.322h-1.067v1.067h1.067v-1.067zM5.867 6.122H4.8v1.067h1.067V6.122zM5.867 8.255H4.8v1.067h1.067V8.255z"
        style="fill:var(--color2, #2196f3)"
      /><path
        fill="#2196f3"
        d="M6.933 7.189H5.866v1.067h1.067V7.189zM4.8 7.189H3.733v1.067H4.8V7.189z"
        style="fill:var(--color2, #2196f3)"
      /><path
        fill="#212121"
        d="M24.715 14.159a1.775 1.775 0 0 0-1.188-.705 1.778 1.778 0 0 0-1.34.352l-1.252.96-1.898 1.417-1.358-.541c2.421-1.086 4.114-3.508 4.114-6.32 0-3.823-3.123-6.933-6.961-6.933s-6.961 3.11-6.961 6.933a6.86 6.86 0 0 0 1.12 3.758l-2.764-.024h-.005c-.009 0-.015.004-.023.005a.515.515 0 0 0-.155.031l-.038.013c-.006.003-.013.003-.019.006l-3.233 1.596-.001.001-1.893.911a.397.397 0 0 0-.063.035 1.779 1.779 0 0 0-.598 2.295c.22.429.595.745 1.056.889a1.776 1.776 0 0 0 1.378-.128l1.388-.738 2.264-1.169 1.357-.008L2.2 22.211l-.002.001-1.339 1.333c-.316.315-.49.732-.49 1.178s.174.863.49 1.179c.325.323.752.485 1.179.485s.854-.162 1.18-.485l1.314-1.309 1.741-1.3.901.897-1.762 1.754-.002.001-1.339 1.333c-.316.315-.49.732-.49 1.178s.174.863.49 1.179c.325.323.753.485 1.18.485s.855-.162 1.18-.485l3.482-3.467.001-.002 1.01-1-.004-.004c.006-.006.015-.009.022-.015l5.166-5.658 3.471.494a.52.52 0 0 0 .262-.033c.018-.006.033-.015.05-.023.019-.01.039-.015.058-.027l3.213-2.133c.012-.008.018-.021.029-.029.013-.01.029-.014.041-.026l1.271-1.191c.662-.62.753-1.635.212-2.362zM2.13 17.77a.714.714 0 0 1-.558.052.717.717 0 0 1-.213-1.26l1.314-.632.449 1.312-.992.528zm3.498-1.828-1.548.8-.439-1.283 2.027-1.001-.04 1.484zm15.099-6.62a5.79 5.79 0 0 1-.599 2.559l-4.181-1.899a1.863 1.863 0 0 0-.788-1.388l1.464-4.86c2.378.756 4.105 2.974 4.105 5.588zm-11.789 0c0-3.235 2.644-5.867 5.894-5.867.253 0 .5.021.745.052l-1.432 4.754c-.019-.001-.037-.006-.057-.006-1.033 0-1.873.837-1.873 1.867s.84 1.867 1.873 1.867c.694 0 1.294-.383 1.618-.945l3.862 1.755a5.894 5.894 0 0 1-4.737 2.39c-3.25 0-5.894-2.632-5.894-5.867zm5.956.8c0 .441-.362.8-.806.8s-.806-.359-.806-.8c0-.441.362-.8.806-.8s.806.359.806.8zM2.465 25.146a.608.608 0 0 1-.854.001.592.592 0 0 1 0-.844l.962-.958.851.848-.959.955zm3.214 3.734a.608.608 0 0 1-.855.001.592.592 0 0 1 0-.844l.963-.959.852.848-.96.955zm3.481-3.469-.002.001-1.765 1.76-.852-.848 1.763-1.755.002-.001c.04-.04.065-.088.09-.135.007-.014.02-.026.026-.04.017-.041.019-.085.026-.129.003-.025.014-.047.014-.073 0-.036-.013-.07-.02-.106-.006-.032-.006-.065-.019-.095a.55.55 0 0 0-.091-.138c-.01-.012-.014-.027-.025-.038h-.001l-.001-.002-1.607-1.6c-.017-.017-.039-.024-.058-.038a.507.507 0 0 0-.087-.058.515.515 0 0 0-.093-.033.507.507 0 0 0-.103-.02.5.5 0 0 0-.095.005.53.53 0 0 0-.104.02.477.477 0 0 0-.094.045c-.02.011-.042.015-.061.029L4.23 23.486l-.901-.897 2.399-2.386 4.361 4.289-.928.919zm6.819-7.017c-.015-.002-.03.004-.045.003a.556.556 0 0 0-.3.075.492.492 0 0 0-.083.061c-.013.011-.028.017-.04.029l-4.698 5.146-4.328-4.257 2.833-2.818a.534.534 0 0 0-.379-.911v-.001l-2.219.013.028-1.607 3.104.027a6.947 6.947 0 0 0 4.981 2.101c.437 0 .864-.045 1.279-.123.04.032.079.065.13.085l2.41.96.331 1.644-3.003-.427zm4.041.178-.313-1.558 1.446-1.08.947 1.257-2.08 1.381zm3.754-2.831-.838.785-.931-1.236.831-.637a.735.735 0 0 1 .543-.143.718.718 0 0 1 .48.284.713.713 0 0 1-.085.947z"
        style="fill:var(--color1, #212121)"
      /><path
        fill="#212121"
        d="m13.602 18.544-2.143-2.133a.534.534 0 0 0-.753 0l-2.142 2.133a.537.537 0 0 0 0 .756l2.142 2.133a.536.536 0 0 0 .753 0l2.143-2.133a.535.535 0 0 0 0-.756zm-2.519 1.759-1.387-1.381 1.387-1.381 1.387 1.381-1.387 1.381zM17.164 5.071l-.258 1.036c.071.018 1.738.452 1.738 2.149h1.067c0-2.017-1.666-2.965-2.547-3.185zM19.711 9.322h-1.067v1.067h1.067V9.322z"
        style="fill:var(--color1, #212121)"
      /></symbol><symbol id="icon-client-1" viewBox="0 0 28 32"><path
        d="m4.085 0 4.771 4.517L0 4.512v21.915h23.149v-8.379l4.766 4.512V.001H4.085zm18.854 17.517L9.411 4.71h13.528v12.807zm-4.2 5.704H3.663V8.482h1.066v13.741h14.01v.998zM7.223 29.344l-.557 1.147-.557-1.147h-.467l.813 1.529v.891h.422v-.891l.811-1.529h-.465zm.7 2.42.196-.563h.938l.198.563h.439l-.916-2.42h-.377l-.914 2.42h.437zm.665-1.906.351 1.004h-.701l.351-1.004zm2.217.946a.55.55 0 0 0-.091.307c0 .204.072.37.214.497.144.126.336.189.575.189s.445-.065.618-.194l.136.161h.469l-.356-.421c.14-.191.209-.435.209-.733h-.351a.973.973 0 0 1-.101.444l-.467-.552.165-.12a.905.905 0 0 0 .251-.253.532.532 0 0 0 .076-.279.496.496 0 0 0-.17-.384.61.61 0 0 0-.432-.156.641.641 0 0 0-.465.166.591.591 0 0 0-.173.449c0 .078.018.158.055.241.038.083.104.184.198.303-.18.129-.3.24-.361.334zm1.092.535a.616.616 0 0 1-.382.136c-.121 0-.217-.035-.289-.105s-.108-.161-.108-.273c0-.13.067-.245.2-.346l.052-.037.529.623zm-.434-1.072c-.114-.141-.171-.258-.171-.351 0-.081.023-.148.07-.201s.109-.08.188-.08c.073 0 .133.023.181.068a.21.21 0 0 1 .072.161.298.298 0 0 1-.103.234l-.052.042-.184.126zm3.94 1.314c.166-.145.262-.347.286-.605h-.419c-.022.173-.075.296-.158.371s-.207.111-.372.111a.468.468 0 0 1-.412-.206c-.093-.137-.14-.337-.14-.598v-.214c.002-.258.052-.454.15-.587a.493.493 0 0 1 .422-.201c.157 0 .277.039.357.116.082.076.133.202.153.376h.419c-.027-.265-.121-.47-.284-.615s-.378-.218-.645-.218a.978.978 0 0 0-.525.141c-.151.094-.267.228-.347.402s-.121.375-.121.603v.226c.003.223.045.418.125.587s.193.299.339.391a.949.949 0 0 0 .51.136c.276 0 .497-.072.663-.216zm2.472-.339c.082-.18.123-.388.123-.625v-.135a1.462 1.462 0 0 0-.126-.62.924.924 0 0 0-.878-.552.957.957 0 0 0-.525.145.939.939 0 0 0-.354.414 1.484 1.484 0 0 0-.125.625v.136c.001.232.043.436.126.613a.962.962 0 0 0 .356.411.98.98 0 0 0 .525.143.97.97 0 0 0 .525-.143.932.932 0 0 0 .352-.412zm-.451-1.368c.102.143.153.349.153.617v.126c0 .273-.05.48-.151.622a.493.493 0 0 1-.429.213.503.503 0 0 1-.432-.218c-.103-.145-.155-.351-.155-.617v-.14c.002-.26.054-.462.156-.603a.496.496 0 0 1 .427-.214c.186 0 .33.072.43.214z"
      /></symbol><symbol id="icon-client-2" viewBox="0 0 25 32"><path
        d="M10.531 1.806h-.084a9.985 9.985 0 0 0-.388-.014h-.28c-.244 0-.494.006-.741.019a.523.523 0 0 0-.056 0 17.4 17.4 0 0 0-6.471 1.651l-.266.128v13.625l.623-.211a23.32 23.32 0 0 1 1.731-.513 21.155 21.155 0 0 1 4.982-.662v1.79a15.56 15.56 0 0 0-.655.019h-.051a19.948 19.948 0 0 0-3.833.588c-1.59.398-3.124.996-4.566 1.779V2.53A18.3 18.3 0 0 1 5.266.582 18.343 18.343 0 0 1 9.781 0h.263c.314.008.621.022.909.044.759.053 1.511.173 2.249.358v1.762a13.947 13.947 0 0 0-2.179-.329l-.045-.004c-.152-.013-.304-.026-.446-.026zm3.102 1.801c.391.03.796.044 1.205.044a19.352 19.352 0 0 0 4.747-.609c1.589-.4 3.123-.998 4.564-1.781v17.163a18.313 18.313 0 0 1-4.792 1.948 18.486 18.486 0 0 1-4.515.581 13.778 13.778 0 0 1-3.425-.404V3.274c.265.061.537.117.814.164.455.077.934.133 1.401.167zm8.734.133-.623.21c-.573.192-1.15.365-1.731.518a21.098 21.098 0 0 1-5.173.663c-.406 0-.78-.011-1.141-.034l-.497-.033v14.017l.427.038c.395.034.803.052 1.214.052a16.573 16.573 0 0 0 4.074-.527 17.107 17.107 0 0 0 3.184-1.144l.266-.128V3.742zM1.684 25.977a.912.912 0 0 0-.693-.28 1.034 1.034 0 0 0-.4.075.91.91 0 0 0-.512.518 1.023 1.023 0 0 0-.072.387v2.335c-.006.165.026.328.092.479.055.12.135.226.233.313a.815.815 0 0 0 .321.166c.114.032.231.048.349.049a.972.972 0 0 0 .892-.61.951.951 0 0 0 .075-.372v-.261h-.61v.208a.528.528 0 0 1-.036.208.359.359 0 0 1-.089.131.365.365 0 0 1-.128.067.425.425 0 0 1-.128.022.314.314 0 0 1-.286-.125.548.548 0 0 1-.081-.313v-2.177a.738.738 0 0 1 .075-.349.31.31 0 0 1 .299-.141.33.33 0 0 1 .272.131c.068.09.104.2.101.313v.202h.604v-.238a1.093 1.093 0 0 0-.279-.737zM5.31 25.95a1.051 1.051 0 0 0-1.38 0 .961.961 0 0 0-.237.327 1.099 1.099 0 0 0-.089.452v2.239a1.08 1.08 0 0 0 .089.459c.055.12.136.227.237.313a.94.94 0 0 0 .322.197 1.028 1.028 0 0 0 .728 0c.121-.044.233-.111.33-.197a.948.948 0 0 0 .23-.313 1.08 1.08 0 0 0 .089-.459v-2.239a1.08 1.08 0 0 0-.089-.452 1.015 1.015 0 0 0-.23-.327zm-.285 3.019a.405.405 0 0 1-.121.324.445.445 0 0 1-.574 0 .397.397 0 0 1-.121-.324V26.73a.405.405 0 0 1 .121-.324.445.445 0 0 1 .574 0 .397.397 0 0 1 .121.324v2.239zM10.072 29.969V25.73h-.587l-.771 2.244h-.011l-.777-2.244h-.581v4.239h.606V27.39h.011l.593 1.823h.302l.598-1.823h.011v2.579h.606zM13.513 26.027a.84.84 0 0 0-.343-.232 1.363 1.363 0 0 0-.439-.066h-.9v4.239h.604v-1.656h.311c.188.009.376-.031.545-.116a.882.882 0 0 0 .332-.324 1.02 1.02 0 0 0 .139-.369c.024-.16.035-.321.033-.482a2.421 2.421 0 0 0-.059-.606.898.898 0 0 0-.223-.39zm-.312 1.292a.547.547 0 0 1-.056.221.346.346 0 0 1-.156.149.619.619 0 0 1-.285.053h-.275v-1.441h.311a.578.578 0 0 1 .272.053.349.349 0 0 1 .142.157.62.62 0 0 1 .053.236v.282c0 .099.006.2 0 .291h-.006zM16.374 25.73h-.495l-.934 4.239h.604l.177-.911h.823l.177.911h.604l-.957-4.239zm-.557 2.751.297-1.537h.011l.296 1.537h-.604zM20.277 28.284h-.011l-.912-2.554h-.581v4.239h.604V27.42h.012l.923 2.549h.568V25.73h-.604v2.554zM23.968 25.73l-.486 1.685h-.012l-.486-1.685h-.64l.83 2.447v1.792h.604v-1.792l.83-2.447h-.64zM0 31.166h.291v.817h.198v-.817h.29v-.167H.001v.167zM2.447 30.998l-.381.984h.21l.081-.224h.392l.084.224h.215l-.391-.984h-.21zm-.031.595.134-.365.134.365h-.268zM4.866 31.62h.227v.127a.382.382 0 0 1-.234.083.244.244 0 0 1-.209-.093.411.411 0 0 1-.073-.257c0-.219.095-.329.283-.329a.206.206 0 0 1 .222.157l.195-.038c-.042-.192-.181-.289-.417-.289a.495.495 0 0 0-.344.127.494.494 0 0 0-.141.379.532.532 0 0 0 .126.369.477.477 0 0 0 .374.144.59.59 0 0 0 .417-.157v-.388h-.427v.166zM7.337 30.998h-.199v.984h.69v-.167h-.49v-.817zM9.426 30.998h-.199v.984h.199v-.984zM11.469 31.656l-.403-.657h-.193v.984h.185v-.643l.395.643h.198v-.984h-.182v.657zM13.315 31.549h.49v-.167h-.49v-.216h.528v-.167h-.727v.984h.747v-.167h-.548v-.266zM17.792 31.387h-.388v-.388h-.198v.984h.198v-.43h.388v.43h.198v-.984h-.198v.388zM19.649 31.549h.492v-.167h-.492v-.216h.529v-.167h-.727v.984h.746v-.167h-.548v-.266zM22.168 31.549c.171-.027.258-.117.258-.274a.236.236 0 0 0-.096-.219.553.553 0 0 0-.288-.058h-.417v.984h.198v-.412h.039a.261.261 0 0 1 .123.022.21.21 0 0 1 .07.072l.215.313h.237l-.12-.192a.685.685 0 0 0-.218-.236zm-.199-.136h-.146v-.247h.156a.526.526 0 0 1 .201.023c.014.013.026.029.033.046a.133.133 0 0 1-.005.111.128.128 0 0 1-.037.043.547.547 0 0 1-.201.023zM24.067 31.549h.49v-.167h-.49v-.216h.529v-.167h-.729v.984h.747v-.167h-.548v-.266z"
      /></symbol><symbol id="icon-client-3" viewBox="0 0 34 32"><path
        d="M5.643 31.315a.095.095 0 0 1 .064.025l.166.159a1.373 1.373 0 0 1-.467.302c-.21.076-.435.113-.663.108a1.77 1.77 0 0 1-.623-.101 1.37 1.37 0 0 1-.469-.285 1.277 1.277 0 0 1-.303-.44 1.472 1.472 0 0 1-.106-.565 1.31 1.31 0 0 1 .436-1.007c.142-.124.312-.222.499-.287.205-.069.422-.103.642-.101.204-.004.407.027.596.092.165.062.316.148.447.255l-.139.17a.173.173 0 0 1-.035.031.097.097 0 0 1-.056.013.136.136 0 0 1-.06-.018l-.075-.045-.104-.058a1.3 1.3 0 0 0-.139-.056 1.46 1.46 0 0 0-.436-.063 1.328 1.328 0 0 0-.461.076c-.136.048-.26.121-.361.213a.987.987 0 0 0-.235.339 1.155 1.155 0 0 0-.085.448 1.17 1.17 0 0 0 .085.455.994.994 0 0 0 .231.338.938.938 0 0 0 .345.209c.136.049.281.073.428.072.085.001.17-.004.253-.014a1.01 1.01 0 0 0 .548-.233.127.127 0 0 1 .079-.029zM10.441 30.517c.003.192-.035.382-.112.561-.068.163-.174.311-.313.436s-.306.222-.491.286a2.02 2.02 0 0 1-1.263 0 1.454 1.454 0 0 1-.488-.287 1.288 1.288 0 0 1-.316-.44 1.462 1.462 0 0 1 0-1.125c.071-.164.178-.314.316-.442.139-.12.305-.214.488-.276a1.992 1.992 0 0 1 1.263 0c.185.065.351.163.49.287.137.125.243.273.314.435.077.181.115.372.112.565zm-.436 0a1.186 1.186 0 0 0-.079-.451.941.941 0 0 0-.222-.338.971.971 0 0 0-.351-.213 1.456 1.456 0 0 0-.918 0 .971.971 0 0 0-.351.213.897.897 0 0 0-.224.338 1.322 1.322 0 0 0 0 .903.926.926 0 0 0 .575.549 1.5 1.5 0 0 0 .918 0 .98.98 0 0 0 .351-.211.933.933 0 0 0 .222-.338c.056-.145.082-.298.079-.451zM13.715 30.99l.044.101c.017-.036.031-.069.048-.101a.95.95 0 0 1 .054-.099l1.062-1.677c.021-.029.039-.047.06-.052a.283.283 0 0 1 .087-.009h.314v2.727h-.372v-2.09a.737.737 0 0 1 0-.094l-1.068 1.7c-.014.025-.035.047-.063.062s-.059.023-.091.023h-.06c-.032 0-.064-.007-.091-.022s-.049-.037-.062-.062l-1.099-1.711v2.189h-.359v-2.722h.314a.28.28 0 0 1 .087.009c.026.011.046.03.058.052l1.084 1.678a.662.662 0 0 1 .054.097zM17.71 30.855v1.021h-.415v-2.723h.926c.175-.003.349.017.517.059.134.033.259.091.366.17a.713.713 0 0 1 .208.267.825.825 0 0 1 .071.348.771.771 0 0 1-.301.621 1.062 1.062 0 0 1-.368.18 1.757 1.757 0 0 1-.501.063l-.503-.007zm0-.293h.503a1.2 1.2 0 0 0 .322-.041.71.71 0 0 0 .233-.117.526.526 0 0 0 .191-.409c.005-.076-.009-.151-.042-.222s-.082-.134-.145-.186a.889.889 0 0 0-.559-.146h-.503v1.122zM23.294 31.88h-.328a.158.158 0 0 1-.091-.025.17.17 0 0 1-.054-.063l-.282-.659H21.12l-.293.659a.152.152 0 0 1-.145.088h-.328l1.246-2.727h.432l1.263 2.727zm-2.057-1.013h1.172l-.494-1.11a1.746 1.746 0 0 1-.093-.256l-.048.143a1.122 1.122 0 0 1-.046.116l-.49 1.108zM25.089 29.165a.178.178 0 0 1 .062.049l1.818 2.056v-2.117h.372v2.727h-.208a.201.201 0 0 1-.085-.016.24.24 0 0 1-.067-.05l-1.816-2.054a.737.737 0 0 1 0 .094v2.027h-.372v-2.727h.22a.191.191 0 0 1 .075.013zM30.402 30.795v1.083h-.415v-1.083l-1.149-1.642h.372a.15.15 0 0 1 .089.023.23.23 0 0 1 .056.061l.719 1.059a1.064 1.064 0 0 1 .127.242l.054-.117a.975.975 0 0 1 .071-.125l.708-1.067a.295.295 0 0 1 .054-.058.14.14 0 0 1 .089-.027h.376l-1.151 1.65zM13.51 24.576c.181.02.364.036.548.051 2.803-1.089 5.174-2.873 6.817-5.126s2.485-4.878 2.421-7.546l-3.089-2.684c.628 2.84.334 5.776-.849 8.479s-3.208 5.067-5.849 6.827z"
      /><path
        d="m12.407 24.451.083.014c2.822-1.754 4.974-4.203 6.176-7.03s1.402-5.904.571-8.83l-4.4-3.823c1.78 3.142 2.496 6.659 2.066 10.141s-1.989 6.786-4.496 9.528zM27.328 15.106c-.747 2.931-2.563 5.574-5.177 7.537a16.49 16.49 0 0 1-2.46 1.534c2.128-.544 4.085-1.504 5.718-2.809s2.9-2.917 3.703-4.714l-1.784-1.549z"
      /><path
        d="m26.628 14.674-2.541-2.207c-.049 2.517-.872 4.976-2.385 7.123s-3.66 3.902-6.217 5.084h.012c.57 0 1.139-.03 1.705-.088 2.39-.848 4.502-2.196 6.147-3.926s2.771-3.785 3.278-5.985zM12.774 3.17 9.743.533c-2.709.91-5.04 2.509-6.686 4.588S.526 9.663.517 12.187c.01 2.789 1.09 5.495 3.07 7.69s4.745 3.754 7.859 4.43c2.78-2.942 4.407-6.579 4.646-10.38s-.924-7.569-3.319-10.757zM33.63 14.268c-.011-3.309-1.529-6.479-4.221-8.818s-6.342-3.658-10.15-3.668a16.144 16.144 0 0 0-5.146.832L32.67 18.737a10.94 10.94 0 0 0 .96-4.469z"
      /></symbol><symbol id="icon-client-4" viewBox="0 0 65 32"><path
        d="M10.016 9.983h-.002c-1.827 0-3.308 1.316-3.308 2.94v.002c0 1.624 1.481 2.94 3.308 2.94h.002c1.827 0 3.308-1.316 3.308-2.94v-.002c0-1.624-1.481-2.94-3.308-2.94zM34.434 9.043c-.005-2.255-1.015-4.417-2.81-6.012S27.398.538 24.86.533c-2.538.004-4.972.902-6.767 2.497s-2.806 3.757-2.811 6.013v12.436s19.149-1.895 19.151-12.434v-.002zM0 25.562c.005 1.569.708 3.073 1.956 4.183s2.94 1.735 4.706 1.74c1.765-.005 3.457-.63 4.705-1.739s1.952-2.613 1.957-4.182V16.91S-.001 18.23-.001 25.562zm6.662 1.55c-.345 0-.682-.091-.969-.261s-.511-.413-.643-.696-.167-.595-.099-.896.233-.577.477-.794.555-.364.893-.424c.338-.06.689-.029 1.008.088s.591.316.783.571a1.404 1.404 0 0 1 .163 1.456c-.087.189-.216.36-.378.505-.162.145-.355.259-.567.338s-.439.119-.669.119v-.006zM20.128 26.258h-1.286v1.328h-.67v-3.25h2.116v.542h-1.446v.839h1.286v.54zm3.218-.223c0 .32-.057.6-.17.842s-.275.427-.487.558c-.21.131-.451.196-.723.196a1.289 1.289 0 0 1-1.212-.748 1.907 1.907 0 0 1-.176-.83v-.161c0-.32.057-.601.172-.844a1.285 1.285 0 0 1 1.212-.756c.271 0 .511.065.721.196.211.129.374.316.489.56.116.242.174.523.174.841v.145zm-.678-.147c0-.341-.061-.6-.183-.777s-.296-.266-.522-.266a.596.596 0 0 0-.52.263c-.122.174-.184.43-.185.768v.158c0 .332.061.589.183.772s.298.275.527.275a.592.592 0 0 0 .518-.263c.121-.177.182-.434.183-.772v-.158zm2.85.846a.342.342 0 0 0-.134-.29c-.089-.068-.25-.14-.482-.214a3.465 3.465 0 0 1-.551-.223c-.369-.199-.554-.468-.554-.806 0-.176.049-.332.147-.469a.985.985 0 0 1 .426-.324c.186-.077.394-.116.625-.116.232 0 .439.042.621.127a.978.978 0 0 1 .422.355.926.926 0 0 1 .152.522h-.67a.434.434 0 0 0-.141-.346c-.094-.083-.225-.125-.395-.125-.164 0-.291.035-.382.105a.323.323 0 0 0-.136.272c0 .106.053.194.158.266.107.071.264.138.471.201.381.115.659.257.833.426s.261.381.261.634a.785.785 0 0 1-.319.663c-.213.159-.499.239-.859.239-.25 0-.478-.045-.683-.136a1.1 1.1 0 0 1-.471-.377.97.97 0 0 1-.161-.554h.672c0 .359.214.538.643.538a.631.631 0 0 0 .373-.096.318.318 0 0 0 .134-.272zm3.574-1.855h-.996v2.708h-.67v-2.708h-.982v-.542h2.647v.542zm2.339 1.299h-1.286v.871h1.509v.538h-2.179v-3.25h2.174v.542h-1.504v.775h1.286v.525zm1.82.218h-.533v1.19h-.67v-3.25h1.208c.384 0 .68.086.888.257s.312.413.312.725a.998.998 0 0 1-.145.556.979.979 0 0 1-.435.353l.703 1.328v.031h-.719l-.609-1.19zm-.534-.542h.54c.168 0 .298-.042.391-.127a.463.463 0 0 0 .138-.355.49.49 0 0 0-.132-.362c-.086-.088-.219-.132-.4-.132h-.538v.975zm4.058.587v1.145h-.67v-3.25h1.268c.244 0 .458.045.643.134a.98.98 0 0 1 .429.382c.1.164.15.35.15.56 0 .318-.109.57-.328.754-.217.183-.519.275-.904.275h-.587zm0-.542h.598c.177 0 .312-.042.404-.125.094-.083.141-.202.141-.357 0-.159-.047-.288-.141-.386s-.223-.149-.388-.152h-.614v1.02zm4.237.279h-1.286v.871h1.509v.538h-2.179v-3.25h2.174v.542h-1.504v.775h1.286v.525zm3.107-1.299h-.995v2.708h-.67v-2.708h-.982v-.542h2.647v.542zm2.339 1.299h-1.286v.871h1.509v.538h-2.178v-3.25h2.174v.542h-1.504v.775h1.286v.525zm1.819.218h-.533v1.19h-.67v-3.25h1.208c.384 0 .68.086.888.257s.313.413.313.725a.998.998 0 0 1-.145.556.979.979 0 0 1-.435.353l.703 1.328v.031h-.719l-.609-1.19zm-.533-.542h.54c.168 0 .298-.042.391-.127a.463.463 0 0 0 .138-.355.49.49 0 0 0-.132-.362c-.086-.088-.219-.132-.4-.132h-.538v.975zm3.935.88a.342.342 0 0 0-.134-.29c-.089-.068-.25-.14-.482-.214a3.465 3.465 0 0 1-.551-.223c-.369-.199-.554-.468-.554-.806 0-.176.049-.332.147-.469a.985.985 0 0 1 .426-.324c.186-.077.394-.116.625-.116.232 0 .439.042.621.127a.973.973 0 0 1 .422.355.926.926 0 0 1 .152.522h-.67a.434.434 0 0 0-.141-.346c-.094-.083-.225-.125-.395-.125-.164 0-.291.035-.382.105a.323.323 0 0 0-.136.272c0 .106.053.194.158.266.107.071.264.138.471.201.381.115.658.257.833.426s.261.381.261.634a.785.785 0 0 1-.319.663c-.213.159-.499.239-.859.239-.25 0-.478-.045-.683-.136a1.1 1.1 0 0 1-.471-.377.97.97 0 0 1-.161-.554h.672c0 .359.214.538.643.538a.634.634 0 0 0 .373-.096.318.318 0 0 0 .134-.272z"
      /></symbol><symbol id="icon-client-5" viewBox="0 0 43 32"><path
        d="M3.239 26.373a.98.98 0 0 1 .25.665c.008.158-.022.315-.089.46s-.169.275-.298.38a1.788 1.788 0 0 1-1.125.307H0V23.97h1.937c.382-.023.761.076 1.073.28.125.096.224.217.289.354s.095.286.086.435a.923.923 0 0 1-.225.645 1.06 1.06 0 0 1-.589.329c.262.044.499.172.668.36zM.92 25.737h.828a.835.835 0 0 0 .526-.14c.062-.052.111-.116.141-.187s.043-.148.036-.225c.006-.076-.007-.153-.037-.224s-.078-.135-.138-.188a.858.858 0 0 0-.542-.142H.92v1.106zm1.435 1.616c.066-.053.119-.119.153-.193s.049-.155.043-.235c.005-.081-.01-.163-.045-.238s-.088-.142-.155-.195a.907.907 0 0 0-.562-.152H.921v1.159H1.8a.93.93 0 0 0 .556-.146zM7.197 28.185 6.12 26.538h-.405v1.647h-.927V23.97h1.754c.442-.028.879.1 1.221.358.245.229.393.53.417.85s-.078.637-.287.894a1.46 1.46 0 0 1-.837.428l1.147 1.684H7.195zm-1.482-2.222h.758c.526 0 .789-.213.789-.638a.586.586 0 0 0-.193-.473.87.87 0 0 0-.596-.171h-.767l.009 1.283zM12.262 27.337h-1.847l-.326.848h-.972l1.696-4.168h1.05l1.689 4.168h-.972l-.319-.848zm-.247-.639-.675-1.779-.675 1.779h1.349zM18.602 28.185h-.92l-2.062-2.867v2.867h-.918V23.97h.918l2.062 2.883V23.97h.92v4.215zM23.852 27.176c-.19.318-.48.577-.832.743-.4.185-.845.276-1.293.266H20.09V23.97h1.637c.448-.011.891.078 1.293.259.352.163.642.419.832.735.189.343.288.722.288 1.106s-.099.763-.288 1.106zm-1.053-.101c.263-.28.407-.637.407-1.006s-.144-.726-.407-1.006a1.692 1.692 0 0 0-1.152-.358h-.639v2.729h.639a1.7 1.7 0 0 0 1.152-.358zM12.838.522s11.873 4.104 11.621 10.043V20.61s-11.864-4.106-11.617-10.045L12.837.522zM35.037 18.259c2.242-1.413 4.836-2.288 7.544-2.545v-3.145c-3.12 1.101-5.766 3.097-7.544 5.69z"
      /><path
        d="M33.69 19.206c1.835-3.384 5.017-5.995 8.891-7.296V2.849S25.672 8.695 26.03 17.153v14.302s.753-.262 1.939-.752c0-.457 0-.918.054-1.382.35-3.926 2.389-7.565 5.668-10.115z"
      /><path
        d="M32.081 24.52a13.62 13.62 0 0 1 .592-2.928c-2.042 2.203-3.278 4.936-3.536 7.815-.025.272-.038.544-.045.824a50.77 50.77 0 0 0 3.252-1.569 13.564 13.564 0 0 1-.263-4.141zM32.754 24.571a12.973 12.973 0 0 0 .209 3.75c4.62-2.531 9.811-6.442 9.611-11.168v-.412c-3.301.338-6.389 1.659-8.79 3.76a13.125 13.125 0 0 0-1.03 4.069z"
      /></symbol><symbol id="icon-client-6" viewBox="0 0 67 32"><path
        d="M33.724 15.224a2.095 2.095 0 0 1-.43-1.414v-2.05c0-.628.142-1.106.428-1.433s.775-.489 1.469-.488c.652 0 1.115.139 1.389.417.299.355.444.789.411 1.226v.482h-1.167v-.488a2.476 2.476 0 0 0-.034-.478.467.467 0 0 0-.167-.284.681.681 0 0 0-.423-.111.711.711 0 0 0-.444.117.544.544 0 0 0-.193.313 2.398 2.398 0 0 0-.046.507v2.488c-.018.24.033.48.15.699.058.074.139.132.233.169s.198.05.301.039a.632.632 0 0 0 .413-.113.505.505 0 0 0 .174-.302c.027-.165.039-.332.036-.498v-.505h1.167v.461c.033.456-.109.909-.403 1.289-.268.305-.725.457-1.396.457s-1.179-.163-1.466-.501zM38.583 15.245c-.295-.319-.442-.784-.442-1.4v-2.157c0-.609.147-1.07.442-1.383s.788-.469 1.478-.467c.686 0 1.177.156 1.471.467.295.313.444.774.444 1.383v2.157c0 .609-.15 1.076-.449 1.397s-.788.482-1.466.482c-.679 0-1.181-.163-1.478-.48zm2.022-.518c.106-.2.154-.419.14-.638v-2.641a1.17 1.17 0 0 0-.138-.626c-.059-.075-.142-.135-.238-.172s-.203-.05-.308-.037c-.105-.013-.212 0-.308.037s-.18.096-.24.172a1.15 1.15 0 0 0-.14.626v2.653c-.015.219.033.439.14.638.068.067.152.121.246.158a.82.82 0 0 0 .6 0 .732.732 0 0 0 .246-.158v-.012zM43.38 9.901h1.256l.945 3.979.966-3.979h1.222l.123 5.743h-.904l-.097-3.992-.932 3.992h-.725l-.966-4.006-.089 4.006h-.913l.114-5.743zM49.301 9.901h1.957c1.127 0 1.691.544 1.691 1.631 0 1.041-.593 1.561-1.78 1.56h-.667v2.553h-1.208l.007-5.743zm1.672 2.455c.119.013.24.004.355-.028s.22-.084.309-.154a.928.928 0 0 0 .174-.649 1.801 1.801 0 0 0-.058-.521c-.017-.057-.047-.111-.089-.158s-.093-.086-.153-.116a1.262 1.262 0 0 0-.539-.092h-.469v1.716h.469zM54.691 9.901h1.297l1.331 5.743h-1.126l-.263-1.324h-1.157l-.271 1.324h-1.143l1.331-5.743zm1.109 3.754-.452-2.411-.452 2.411h.903zM58.395 9.901h.846l1.619 3.276V9.901h1.003v5.743h-.804l-1.628-3.42v3.42h-1.036l.002-5.743zM64.209 13.455l-1.346-3.546h1.133l.821 2.277.771-2.277h1.109l-1.329 3.546v2.19h-1.16v-2.19zM35.589 18.156v.3h-.986v2.334h-.413v-2.334h-.99v-.3h2.389zM38.679 20.79h-.319a.139.139 0 0 1-.089-.025.133.133 0 0 1-.053-.06l-.285-.626h-1.367l-.285.626a.172.172 0 0 1-.044.071.152.152 0 0 1-.089.025h-.319l1.208-2.634h.42l1.222 2.624zm-2-.978h1.14l-.483-1.072a1.75 1.75 0 0 1-.089-.248c-.017.05-.031.098-.046.14l-.044.11-.478 1.07zM40.762 20.532c.076.003.151.003.227 0a1.72 1.72 0 0 0 .367-.079c.053-.019.106-.042.162-.065v-.592h-.483c-.012.001-.024-.001-.035-.005s-.021-.009-.03-.016a.062.062 0 0 1-.024-.048v-.202h.937v1.01a1.842 1.842 0 0 1-.51.215c-.099.025-.2.043-.302.054a3.775 3.775 0 0 1-.353.017 1.842 1.842 0 0 1-.609-.098 1.485 1.485 0 0 1-.483-.275 1.293 1.293 0 0 1-.312-.417 1.316 1.316 0 0 1-.111-.547 1.352 1.352 0 0 1 .109-.551c.069-.156.176-.298.312-.417.138-.119.302-.212.483-.273.207-.067.426-.1.647-.098.112 0 .225.008.336.023a1.65 1.65 0 0 1 .53.171c.074.041.144.087.21.138l-.116.163c-.009.015-.023.027-.039.036s-.036.014-.055.014a.16.16 0 0 1-.075-.021 1.582 1.582 0 0 1-.118-.063 1.02 1.02 0 0 0-.162-.071 1.508 1.508 0 0 0-.529-.081 1.407 1.407 0 0 0-.466.073 1.026 1.026 0 0 0-.355.209.918.918 0 0 0-.225.328 1.23 1.23 0 0 0 0 .878.938.938 0 0 0 .242.332c.099.09.219.162.353.209.154.046.316.063.478.052zM44.612 20.49h1.319v.3h-1.722v-2.634h.413l-.01 2.334zM47.304 20.79h-.413v-2.634h.413v2.634zM48.84 18.168a.189.189 0 0 1 .063.048l1.766 1.986a.737.737 0 0 1 0-.094v-1.962h.36v2.645h-.208a.19.19 0 0 1-.089-.015.23.23 0 0 1-.065-.05l-1.764-1.984v2.048h-.345v-2.634h.215c.023 0 .046.004.068.012zM54.07 18.156v.29h-1.464v.87h1.186v.279h-1.186v.899h1.464v.29h-1.889v-2.628h1.889zM10.782 1.888l18.343 4.497v15.757l-18.343-4.494V1.889zM9.605.545v17.867l20.694 5.074V5.621L9.605.545z"
      /><path d="M20.696 31.781 0 26.702V8.836l20.696 5.076V31.78z" /><path
        d="m9.948 1.686 18.104 4.44-7.699 6.649L2.247 8.333l7.702-6.647zM9.605.545 0 8.837l20.696 5.076 9.603-8.292L9.605.545zM21.861 30.776l8.438-7.287-8.438-2.071v9.358z"
      /></symbol><symbol id="icon-clock" viewBox="0 0 32 32"><path
        d="M31.297 15.301C31.295 6.849 24.442-.002 15.989 0S.686 6.855.688 15.308a15.304 15.304 0 0 0 10.649 14.576.662.662 0 0 0 .529-.065.637.637 0 0 0 .283-.356l3.865-12.25a1.912 1.912 0 1 0-.84-3.635l-5.106-5.107a.637.637 0 0 0-.902.902l5.103 5.109a1.876 1.876 0 0 0 .536 2.309l-3.683 11.673C3.844 25.783.118 17.71 2.799 10.432S13.553-.572 20.831 2.109s11.004 10.754 8.323 18.032a14.042 14.042 0 0 1-7.462 7.973l-.398-1.874a.638.638 0 0 0-1.048-.344l-3.837 3.426a.637.637 0 0 0 .231 1.084l4.899 1.563a.638.638 0 0 0 .819-.74l-.391-1.839a15.255 15.255 0 0 0 9.329-14.089zm-15.305-.637a.638.638 0 1 1 0 1.277.638.638 0 0 1 0-1.277zm2.101 14.864 2.184-1.948.603 2.84-2.787-.892z"
      /><path
        d="M15.354 3.185V4.46a.638.638 0 1 0 1.276 0V3.185a.638.638 0 0 0-1.276 0zM3.876 14.664a.638.638 0 0 0 0 1.276h1.275a.638.638 0 1 0 0-1.276H3.876zM28.108 15.939a.638.638 0 1 0 0-1.276h-1.275a.638.638 0 0 0 0 1.276h1.275z"
      /></symbol><symbol id="icon-diagram" viewBox="0 0 32 32"><path
        fill="#2196f3"
        d="M14.926 14.965h1.066v4.798h-1.066v-4.797zM19.19 17.097h1.066v2.665H19.19v-2.665zM10.661 18.696h1.066v1.066h-1.066v-1.066zM7.463 18.163h1.066v1.599H7.463v-1.599z"
        style="fill:var(--color2, #2196f3)"
      /><path
        fill="#212121"
        d="M1.599 28.291h25.587a1.6 1.6 0 0 0 1.599-1.599V24.56a1.6 1.6 0 0 0-1.599-1.599h-.533V9.668L29.681 6.8a1.608 1.608 0 1 0-.746-.763L26.654 8.2V6.97a1.6 1.6 0 0 0-1.599-1.599H3.733A1.6 1.6 0 0 0 2.134 6.97v15.992h-.533a1.6 1.6 0 0 0-1.599 1.599v2.132a1.6 1.6 0 0 0 1.599 1.599zM30.384 4.837a.533.533 0 1 1 0 1.067.533.533 0 0 1 0-1.067zM3.198 6.969c0-.294.239-.533.533-.533h21.322c.294 0 .533.239.533.533v2.239l-1.066 1.013V8.035a.533.533 0 0 0-.533-.533H4.797a.533.533 0 0 0-.533.533v13.326c0 .294.239.533.533.533h19.19a.533.533 0 0 0 .533-.533v-9.674l1.066-1.01v12.284H3.198V6.969zm4.798 6.93a1.598 1.598 0 1 0 1.107 2.749l1.853.93a.532.532 0 0 0 .636-.123l3.939-4.431 3.872 2.901a.533.533 0 0 0 .686-.039l3.365-3.188v8.131H5.33V8.569h18.124v2.66l-3.771 3.572-3.904-2.927a.533.533 0 0 0-.718.072l-3.993 4.493-1.493-.746c.011-.064.018-.129.02-.193a1.6 1.6 0 0 0-1.599-1.599zm.533 1.599a.533.533 0 1 1-1.067 0 .533.533 0 0 1 1.067 0zm3.198 8.529h5.331v.533a.533.533 0 0 1-.533.533h-4.264a.533.533 0 0 1-.533-.533v-.533zm-10.661.533c0-.294.239-.533.533-.533h9.062v.533a1.6 1.6 0 0 0 1.599 1.599h4.264a1.6 1.6 0 0 0 1.599-1.599v-.533h9.062c.294 0 .533.239.533.533v2.132a.533.533 0 0 1-.533.533H1.598a.533.533 0 0 1-.533-.533V24.56z"
        style="fill:var(--color1, #212121)"
      /></symbol><symbol id="icon-envelope" viewBox="0 0 43 32"><path
        d="M38.667 0H4C1.794 0 0 1.794 0 4v24c0 2.206 1.794 4 4 4h34.667c2.206 0 4-1.794 4-4V4c0-2.206-1.794-4-4-4zm0 2.667c.181 0 .353.038.511.103L21.334 18.236 3.49 2.77a1.32 1.32 0 0 1 .511-.103h34.667zm0 26.666H4A1.334 1.334 0 0 1 2.667 28V5.587L20.46 21.008a1.335 1.335 0 0 0 1.748 0L40.001 5.587V28c0 .736-.598 1.333-1.333 1.333z"
      /></symbol><symbol id="icon-facebook" viewBox="0 0 32 32"><path
        d="M21.329 5.313h2.921V.225C23.746.156 22.013 0 19.994 0c-4.212 0-7.097 2.649-7.097 7.519V12H8.249v5.688h4.648V32h5.699V17.689h4.46l.708-5.688h-5.169V8.082c.001-1.644.444-2.769 2.735-2.769z"
      /></symbol><symbol id="icon-instagram" viewBox="0 0 32 32"><path
        d="M31.969 9.408c-.075-1.7-.35-2.869-.744-3.882a7.806 7.806 0 0 0-1.851-2.838A7.867 7.867 0 0 0 26.542.844C25.523.45 24.36.175 22.66.1 20.947.019 20.403 0 16.059 0s-4.888.019-6.595.094c-1.7.075-2.869.35-3.882.744a7.803 7.803 0 0 0-2.838 1.85A7.867 7.867 0 0 0 .9 5.52C.506 6.539.231 7.702.156 9.402c-.081 1.713-.1 2.257-.1 6.601s.019 4.888.094 6.595c.075 1.7.35 2.869.744 3.882a7.895 7.895 0 0 0 1.85 2.838 7.867 7.867 0 0 0 2.832 1.844c1.019.394 2.182.669 3.882.744 1.706.075 2.25.094 6.595.094s4.888-.019 6.595-.094c1.7-.075 2.869-.35 3.882-.744a8.184 8.184 0 0 0 4.682-4.682c.394-1.019.669-2.182.744-3.882.075-1.707.094-2.251.094-6.595s-.006-4.888-.081-6.595zm-2.882 13.065c-.069 1.563-.331 2.407-.55 2.969a5.31 5.31 0 0 1-3.038 3.038c-.563.219-1.413.481-2.969.55-1.688.075-2.194.094-6.464.094s-4.782-.019-6.464-.094c-1.563-.069-2.407-.331-2.969-.55a4.926 4.926 0 0 1-1.838-1.194 4.974 4.974 0 0 1-1.194-1.838c-.219-.563-.481-1.413-.55-2.969-.075-1.688-.094-2.194-.094-6.464s.019-4.782.094-6.464c.069-1.563.331-2.407.55-2.969a4.868 4.868 0 0 1 1.2-1.838A4.974 4.974 0 0 1 6.639 3.55c.563-.219 1.413-.481 2.969-.55 1.688-.075 2.194-.094 6.464-.094 4.276 0 4.782.019 6.464.094 1.563.069 2.407.331 2.969.55a4.914 4.914 0 0 1 1.838 1.194 4.974 4.974 0 0 1 1.194 1.838c.219.563.481 1.413.55 2.969.075 1.688.094 2.194.094 6.464s-.019 4.77-.094 6.458z"
      /><path
        d="M16.059 7.783c-4.538 0-8.22 3.682-8.22 8.22s3.682 8.22 8.22 8.22c4.539 0 8.22-3.682 8.22-8.22s-3.682-8.22-8.22-8.22zm0 13.552a5.333 5.333 0 0 1 0-10.664 5.333 5.333 0 0 1 0 10.664zM26.524 7.458a1.919 1.919 0 1 1-3.838 0 1.919 1.919 0 0 1 3.838 0z"
      /></symbol><symbol id="icon-linkedin" viewBox="0 0 32 32"><path
        d="M31.992 32v-.001H32V20.263c0-5.741-1.236-10.164-7.948-10.164-3.227 0-5.392 1.771-6.276 3.449h-.093v-2.913h-6.364v21.364h6.627V21.42c0-2.785.528-5.479 3.977-5.479 3.399 0 3.449 3.179 3.449 5.657v10.401h6.62zM.528 10.636h6.635V32H.528V10.636zM3.843 0C1.722 0 0 1.721 0 3.843s1.721 3.879 3.843 3.879c2.121 0 3.843-1.757 3.843-3.879A3.846 3.846 0 0 0 3.843 0z"
      /></symbol><symbol id="icon-smartphone" viewBox="0 0 20 32"><path
        d="M17 0H3C1.346 0 0 1.346 0 3v26c0 1.654 1.346 3 3 3h14c1.654 0 3-1.346 3-3V3c0-1.654-1.346-3-3-3zM3 2h14a1 1 0 0 1 1 1v21H2V3a1 1 0 0 1 1-1zm14 28H3a1 1 0 0 1-1-1v-3h16v3a1 1 0 0 1-1 1z"
      /><path
        fill="#757575"
        d="M4.707 27.478c.391.365.391.956 0 1.321s-1.024.365-1.414 0c-.391-.365-.391-.956 0-1.321s1.024-.365 1.414 0z"
        style="fill:var(--color4, #757575)"
      /></symbol><symbol id="icon-twitter" viewBox="0 0 32 32"><path
        d="M32 6.078c-1.19.522-2.458.868-3.78 1.036a6.523 6.523 0 0 0 2.886-3.626 13.11 13.11 0 0 1-4.16 1.588A6.574 6.574 0 0 0 22.154 3c-3.632 0-6.556 2.948-6.556 6.562 0 .52.044 1.02.152 1.496-5.454-.266-10.28-2.88-13.522-6.862a6.605 6.605 0 0 0-.898 3.316 6.57 6.57 0 0 0 2.914 5.452 6.479 6.479 0 0 1-2.964-.808v.072c0 3.188 2.274 5.836 5.256 6.446a6.548 6.548 0 0 1-1.72.216 5.8 5.8 0 0 1-1.242-.112c.85 2.598 3.262 4.508 6.13 4.57a13.182 13.182 0 0 1-8.134 2.798c-.538 0-1.054-.024-1.57-.09A18.469 18.469 0 0 0 10.064 29c12.072 0 18.672-10 18.672-18.668 0-.29-.01-.57-.024-.848A13.087 13.087 0 0 0 32 6.078z"
      /></symbol>   





<symbol id="icon-client1" viewBox="0 0 59 32"><path
        d="m24.348 8 2.438 2.307-4.525-.003V21.5h11.826v-4.281l2.435 2.305V7.999H24.348zm9.632 8.949-6.911-6.543h6.911v6.543zm-2.146 2.914h-7.702v-7.529h.544v7.019h7.158v.51zm-5.883 3.128-.285.586-.285-.586h-.239l.415.781v.455h.216v-.455l.415-.781h-.238zm.358 1.237.1-.288h.479l.101.288h.224l-.468-1.237h-.193l-.467 1.237h.223zm.339-.974.179.513h-.358l.179-.513zm1.133.483a.28.28 0 0 0-.047.155v.002c0 .104.037.189.11.254s.171.097.294.097a.513.513 0 0 0 .316-.099l.07.082h.239l-.182-.215a.618.618 0 0 0 .107-.374h-.179a.494.494 0 0 1-.051.226l-.239-.282.084-.061a.48.48 0 0 0 .127-.127l.001-.002a.276.276 0 0 0 .039-.141v-.007a.254.254 0 0 0-.086-.191.309.309 0 0 0-.209-.08h-.013.001c-.099 0-.179.029-.238.085s-.088.133-.088.23c0 .04.009.081.028.123a.777.777 0 0 0 .101.154.745.745 0 0 0-.184.17zm.558.273a.316.316 0 0 1-.195.07h-.01a.185.185 0 0 1-.193-.186v-.007c0-.066.034-.125.102-.177l.026-.019.27.319zm-.221-.547c-.058-.072-.088-.131-.088-.179 0-.041.012-.075.036-.103a.122.122 0 0 1 .091-.041H28.166c.034 0 .065.013.088.035a.11.11 0 0 1 .037.082v.004c0 .046-.02.087-.052.115l-.026.022-.094.064zm2.012.671a.445.445 0 0 0 .146-.309h-.214c-.011.088-.038.151-.081.189s-.106.057-.19.057a.242.242 0 0 1-.211-.105.55.55 0 0 1-.071-.306v-.109c.001-.132.027-.232.077-.3s.122-.103.216-.103c.08 0 .141.02.183.059s.068.103.078.192h.214c-.014-.135-.062-.24-.145-.314s-.193-.111-.329-.111a.47.47 0 0 0-.444.274l-.001.003a.723.723 0 0 0-.062.294v.015-.001.115c.002.114.023.214.064.3s.099.152.173.199a.48.48 0 0 0 .261.07.503.503 0 0 0 .339-.11zm1.263-.173a.757.757 0 0 0 .063-.319v-.082a.753.753 0 0 0-.066-.308l.002.005a.478.478 0 0 0-.179-.208l-.002-.001c-.078-.049-.167-.073-.268-.073s-.19.024-.268.074a.482.482 0 0 0-.181.211.751.751 0 0 0-.064.304v.016-.001.07c.001.118.022.223.064.313s.104.161.182.21a.497.497 0 0 0 .268.073c.102 0 .191-.024.269-.073s.138-.12.18-.211zm-.23-.699a.539.539 0 0 1 .078.315v.064c0 .139-.026.245-.077.318s-.124.109-.219.109h-.009a.256.256 0 0 1-.211-.111l-.001-.001a.535.535 0 0 1-.079-.315v-.071a.528.528 0 0 1 .08-.308.255.255 0 0 1 .209-.11h.01c.095 0 .168.037.22.11z"
      /></symbol>
<symbol id="icon-client2" viewBox="0 0 59 32"><path
        d="M28.561 7.629h-.048a9.542 9.542 0 0 0-.214-.008h-.163c-.138 0-.279.003-.419.01l-.016-.001-.017.001h.001a9.786 9.786 0 0 0-3.716.959l.059-.026-.151.072v7.702l.352-.12c.309-.106.638-.202.978-.29.841-.225 1.81-.361 2.808-.374h.008v1.012a8.944 8.944 0 0 0-.37.01h-.029c-.791.044-1.531.163-2.245.35l.078-.017c-.98.249-1.839.594-2.638 1.035l.057-.029V8.038c.78-.463 1.681-.841 2.636-1.086l.072-.016a10.114 10.114 0 0 1 2.55-.329h.151c.178.005.351.013.514.025.429.03.854.098 1.271.202v.996a7.441 7.441 0 0 0-1.206-.184l-.026-.002-.025-.002a3.005 3.005 0 0 0-.249-.015h-.003zm1.753 1.018c.221.017.449.025.681.025a10.987 10.987 0 0 0 2.759-.361l-.076.017a11.03 11.03 0 0 0 2.637-1.035l-.057.029v9.701c-.78.463-1.681.841-2.636 1.086l-.072.016c-.765.205-1.644.325-2.55.328h-.065a7.796 7.796 0 0 1-1.927-.24l.054.012V8.461a8.131 8.131 0 0 0 1.252.188zm4.937.075-.352.119c-.323.109-.65.206-.978.293-.876.235-1.883.371-2.922.375h-.002c-.23 0-.441-.006-.645-.019l-.281-.018v7.922l.241.021c.223.02.454.03.686.03a9.368 9.368 0 0 0 2.368-.313l-.065.015a9.607 9.607 0 0 0 1.857-.672l-.057.025.151-.072V8.724zM23.561 21.291a.516.516 0 0 0-.373-.159h-.019.001-.008a.582.582 0 0 0-.222.044l.004-.001a.512.512 0 0 0-.288.289l-.001.003a.565.565 0 0 0-.04.218v1.32a.633.633 0 0 0 .052.271.523.523 0 0 0 .132.177.462.462 0 0 0 .181.094.731.731 0 0 0 .197.027.558.558 0 0 0 .547-.556v-.148h-.345v.126a.301.301 0 0 1-.021.112l.001-.002a.215.215 0 0 1-.05.074.235.235 0 0 1-.144.05l-.02.001a.173.173 0 0 1-.141-.072.31.31 0 0 1-.046-.163v-.014.001-1.231a.432.432 0 0 1 .042-.197.176.176 0 0 1 .169-.08h-.001.007c.06 0 .114.029.147.074a.278.278 0 0 1 .057.17v.122h.342V21.7a.602.602 0 0 0-.044-.229l.001.004a.538.538 0 0 0-.116-.186zm2.049-.014a.605.605 0 0 0-.598-.108.547.547 0 0 0-.315.289l-.001.003a.606.606 0 0 0-.05.256v1.265a.623.623 0 0 0 .05.259.516.516 0 0 0 .134.177.534.534 0 0 0 .182.111.594.594 0 0 0 .599-.112l-.001.001a.542.542 0 0 0 .18-.436v-1.278a.597.597 0 0 0-.052-.247l.002.004a.572.572 0 0 0-.13-.185zm-.161 1.705a.232.232 0 0 1-.068.183.252.252 0 0 1-.325 0 .224.224 0 0 1-.069-.163l.001-.021v.001-1.266l-.001-.02c0-.064.027-.122.069-.163a.252.252 0 0 1 .325 0 .224.224 0 0 1 .069.163l-.001.021v-.001 1.266zm2.853.566v-2.397h-.331l-.436 1.269h-.006l-.439-1.268h-.328v2.396h.342v-1.457h.006l.335 1.03h.171l.338-1.03h.006v1.457h.342zm1.944-2.228a.481.481 0 0 0-.193-.131.733.733 0 0 0-.235-.037h-.522v2.397h.341v-.936h.176a.629.629 0 0 0 .308-.065.497.497 0 0 0 .186-.181l.001-.002a.582.582 0 0 0 .078-.209c.012-.075.019-.162.019-.251v-.023.001a1.403 1.403 0 0 0-.033-.342.513.513 0 0 0-.126-.22zm-.176.73a.318.318 0 0 1-.032.127l.001-.002a.189.189 0 0 1-.087.083h-.001a.349.349 0 0 1-.143.031h-.019.001-.156v-.815h.192a.33.33 0 0 1 .14.031l-.002-.001a.19.19 0 0 1 .079.087v.001a.344.344 0 0 1 .03.134v.159c0 .056.003.113 0 .165h-.003zm1.794-.899h-.28l-.528 2.397h.342l.1-.515h.465l.101.515h.341l-.541-2.397zm-.315 1.555.168-.869h.006l.167.869h-.341zm2.521-.111h-.006l-.515-1.443h-.328v2.397h.341v-1.441h.007l.522 1.441h.321v-2.396h-.341v1.443zm2.086-1.444-.275.953h-.007l-.274-.953h-.362l.469 1.384v1.013h.342v-1.013l.469-1.383h-.361zm-13.547 3.073h.165v.462h.112v-.462h.163v-.095h-.44v.095zm1.383-.095-.216.557h.119l.046-.127h.222l.047.127h.122l-.221-.557h-.119zm-.017.337.075-.206.075.206h-.151zm1.384.015h.129v.072a.21.21 0 0 1-.132.047h-.008a.14.14 0 0 1-.11-.053.23.23 0 0 1-.041-.133v-.013.001c0-.124.054-.186.16-.186l.012-.001c.055 0 .101.038.114.088v.001l.11-.021c-.024-.109-.102-.163-.236-.163h-.008a.278.278 0 0 0-.187.072.27.27 0 0 0-.08.215v-.001.013a.3.3 0 0 0 .072.196.268.268 0 0 0 .194.082l.018-.001h-.001.009a.336.336 0 0 0 .227-.089v-.219h-.241v.094zm1.397-.352h-.113v.557h.39v-.095h-.277v-.462zm1.18 0h-.112v.557h.112v-.557zm1.155.372-.228-.371h-.109v.557h.104v-.363l.224.363h.112v-.557h-.103v.372zm1.044-.06h.277v-.095h-.277v-.122h.298v-.095h-.411v.557h.422v-.095h-.31v-.151zm2.53-.092h-.219v-.219h-.111v.556h.111v-.243h.219v.243h.112v-.557h-.112v.219zm1.05.092h.278v-.095h-.278v-.122h.299v-.095h-.41v.557h.422v-.095h-.31v-.151zm1.423 0c.097-.015.146-.066.146-.155l.001-.016a.133.133 0 0 0-.055-.107.312.312 0 0 0-.141-.033l-.023.001h.001-.236v.556h.112v-.233h.031a.16.16 0 0 1 .062.013h-.001a.12.12 0 0 1 .04.041l.121.177h.134l-.068-.109a.4.4 0 0 0-.122-.133l-.001-.001zm-.112-.077h-.082v-.139h.088l.024-.001c.032 0 .063.005.092.015l-.002-.001a.074.074 0 0 1 .024.055.077.077 0 0 1-.008.034.061.061 0 0 1-.021.024.307.307 0 0 1-.093.014l-.022-.001h.001zm1.186.077h.277v-.095h-.277v-.122h.299v-.095h-.412v.557h.422v-.095h-.31v-.151z"
      /></symbol>
<symbol id="icon-client3" viewBox="0 0 59 32"><path
        d="M23.793 22.644c.006 0 .011.001.016.003l.014.008.076.072a.621.621 0 0 1-.214.138.823.823 0 0 1-.283.05h-.021.001a.802.802 0 0 1-.284-.046.592.592 0 0 1-.352-.327l-.001-.004a.653.653 0 0 1-.049-.251V22.266c0-.177.077-.336.199-.446h.001a.692.692 0 0 1 .227-.131.907.907 0 0 1 .293-.046h.018c.091 0 .178.015.259.044l-.006-.002a.748.748 0 0 1 .204.117l-.064.077a.07.07 0 0 1-.016.014.04.04 0 0 1-.022.006h-.003a.054.054 0 0 1-.028-.008l-.034-.021-.048-.026a.554.554 0 0 0-.146-.046h-.003a.69.69 0 0 0-.105-.008h-.016a.623.623 0 0 0-.208.036l.004-.001a.454.454 0 0 0-.273.253.507.507 0 0 0-.039.198v.015c0 .072.014.141.04.204l-.001-.004a.454.454 0 0 0 .105.154.422.422 0 0 0 .158.096.559.559 0 0 0 .195.033.892.892 0 0 0 .116-.007.457.457 0 0 0 .251-.107l-.001.001a.057.057 0 0 1 .036-.013zm2.191-.364v.008a.63.63 0 0 1-.053.253l.002-.004a.552.552 0 0 1-.142.198h-.001a.665.665 0 0 1-.22.129l-.005.001a.91.91 0 0 1-.583-.002l.006.002a.66.66 0 0 1-.223-.131l.001.001a.58.58 0 0 1-.143-.197l-.001-.004a.665.665 0 0 1 .002-.518l-.002.004a.59.59 0 0 1 .144-.202.652.652 0 0 1 .223-.126.904.904 0 0 1 .583.002l-.006-.002c.084.03.16.074.224.131s.111.125.143.199c.035.083.053.17.051.258zm-.199 0v-.011a.53.53 0 0 0-.038-.199l.001.004a.424.424 0 0 0-.259-.25l-.003-.001a.67.67 0 0 0-.424.001l.005-.001a.425.425 0 0 0-.263.249l-.001.003a.59.59 0 0 0 .002.416l-.001-.004c.046.119.141.21.26.25l.003.001a.682.682 0 0 0 .419 0 .447.447 0 0 0 .16-.096.432.432 0 0 0 .102-.154.54.54 0 0 0 .036-.206zm1.694.216.02.046.022-.046a.342.342 0 0 1 .026-.047l-.001.002.485-.766c.01-.013.018-.022.028-.024s.021-.004.033-.004h.15v1.245h-.17v-.954l-.001-.022.001-.023v.001l-.488.776a.069.069 0 0 1-.028.028.08.08 0 0 1-.041.01h-.029a.081.081 0 0 1-.041-.011.069.069 0 0 1-.028-.028l-.502-.781v.999h-.164v-1.242h.15c.012 0 .023.002.034.005h-.001a.051.051 0 0 1 .026.024l.495.766a.252.252 0 0 1 .024.043l.001.002zm1.823-.062v.466h-.189v-1.243h.423a.934.934 0 0 1 .236.027.474.474 0 0 1 .167.078c.04.032.073.073.094.12l.001.002a.368.368 0 0 1 .032.159v.008a.345.345 0 0 1-.137.275l-.001.001a.496.496 0 0 1-.168.082.795.795 0 0 1-.213.029h-.016l-.229-.003zm0-.134h.23a.52.52 0 0 0 .147-.019.317.317 0 0 0 .107-.054l-.001.001a.239.239 0 0 0 .087-.184v-.016a.204.204 0 0 0-.02-.089l.001.001a.241.241 0 0 0-.066-.085.399.399 0 0 0-.225-.068l-.031.001h.001-.23v.512zm2.549.602h-.153a.067.067 0 0 1-.039-.012.075.075 0 0 1-.025-.028l-.129-.301h-.648l-.134.301a.071.071 0 0 1-.064.04h-.152l.569-1.245h.197l.577 1.245zm-.939-.463h.535l-.225-.507a.963.963 0 0 1-.043-.117l-.022.065a.586.586 0 0 1-.021.053l-.224.506zm1.759-.776a.076.076 0 0 1 .028.022l.83.939v-.967h.17v1.245h-.097a.09.09 0 0 1-.037-.008h.001a.12.12 0 0 1-.031-.023l-.829-.938.001.021-.001.022v-.001.925h-.17v-1.245h.101c.011 0 .023.002.034.006zm2.426.744v.494h-.19v-.494l-.525-.75H34.556c.014 0 .026.004.037.011.01.008.019.018.026.028l.328.484c.013.021.025.04.034.058s.017.035.024.053l.024-.054a.545.545 0 0 1 .032-.057l.323-.487a.12.12 0 0 1 .024-.026.059.059 0 0 1 .037-.012H35.62l-.525.753zm-7.712-2.84c.083.009.166.016.25.023 1.28-.497 2.362-1.311 3.112-2.34s1.134-2.227 1.105-3.445l-1.41-1.225c.287 1.296.152 2.637-.387 3.871s-1.464 2.313-2.67 3.117z"
      /><path
        d="m26.881 19.51.038.007c1.288-.801 2.271-1.919 2.819-3.21s.64-2.695.261-4.031l-2.009-1.745c.812 1.434 1.139 3.04.943 4.63s-.908 3.098-2.052 4.35zm6.812-4.266c-.341 1.338-1.17 2.544-2.363 3.441a7.363 7.363 0 0 1-1.081.68l-.042.02c.972-.248 1.865-.687 2.61-1.282s1.324-1.332 1.69-2.152l-.815-.707z"
      /><path
        d="m33.374 15.047-1.16-1.008c-.022 1.149-.398 2.272-1.089 3.251s-1.671 1.782-2.838 2.321h.006c.26 0 .52-.014.778-.04 1.091-.387 2.055-1.003 2.806-1.792s1.265-1.728 1.497-2.732zm-6.325-5.252-1.384-1.203c-1.237.415-2.301 1.145-3.052 2.095s-1.155 2.074-1.159 3.226c.005 1.273.498 2.509 1.402 3.511s2.166 1.714 3.587 2.022c1.269-1.343 2.012-3.003 2.121-4.738s-.422-3.456-1.515-4.911zm9.521 5.067c-.005-1.51-.698-2.958-1.927-4.026s-2.895-1.67-4.634-1.674h-.015c-.835 0-1.638.139-2.386.395l.052-.015 8.471 7.361a4.92 4.92 0 0 0 .438-2.04z"
      /></symbol>
<symbol id="icon-client4" viewBox="0 0 59 32"><path
        d="M19.529 12.905h-.001c-.834 0-1.51.601-1.51 1.342v.001c0 .741.676 1.342 1.51 1.342h.001c.834 0 1.51-.601 1.51-1.342v-.001c0-.742-.676-1.343-1.51-1.343zm11.148-.428c-.002-1.03-.464-2.017-1.283-2.745s-1.929-1.138-3.088-1.141c-1.159.002-2.27.412-3.089 1.14s-1.281 1.715-1.283 2.745v5.678s8.742-.865 8.743-5.677v-.001zm-15.72 7.54c.002.717.323 1.403.893 1.91s1.342.792 2.148.794c.806-.002 1.578-.288 2.148-.794s.891-1.193.893-1.909v-3.951s-6.083.603-6.083 3.95zm3.041.708a.864.864 0 0 1-.442-.119.738.738 0 0 1-.291-.313l-.002-.004a.626.626 0 0 1-.044-.413l-.001.004c.031-.137.106-.264.218-.362A.84.84 0 0 1 18 19.31c.109 0 .214.02.311.056l-.006-.002c.145.054.27.144.357.261s.134.253.134.393c0 .093-.02.186-.06.272a.72.72 0 0 1-.172.23l-.001.001a.813.813 0 0 1-.259.154.875.875 0 0 1-.305.054h-.001v-.003zm6.147-.39h-.587v.606h-.306v-1.484h.966v.248h-.661v.383h.587v.247zm1.47-.102c0 .146-.026.274-.077.384s-.126.195-.223.255a.61.61 0 0 1-.319.09h-.012.001a.593.593 0 0 1-.551-.338l-.002-.004a.855.855 0 0 1-.08-.366v-.014.001-.073c0-.146.026-.275.078-.385a.588.588 0 0 1 .553-.346c.124 0 .233.03.329.09.096.059.171.144.223.256s.079.239.079.384v.066zm-.31-.067c0-.155-.028-.274-.083-.355a.273.273 0 0 0-.227-.121h-.013.001-.012a.27.27 0 0 0-.225.12l-.001.001c-.056.08-.084.196-.085.351v.072c0 .151.028.269.083.352s.136.125.241.125h.012a.27.27 0 0 0 .224-.119l.001-.001c.055-.081.083-.198.083-.353v-.072zm1.301.386v-.009a.154.154 0 0 0-.061-.123.791.791 0 0 0-.22-.098 1.515 1.515 0 0 1-.26-.106l.009.004c-.169-.091-.253-.214-.253-.368 0-.08.023-.152.067-.214.046-.063.111-.112.195-.148s.18-.053.285-.053c.106 0 .2.019.283.058s.147.092.192.162c.046.07.07.15.07.238h-.306c0-.068-.021-.121-.064-.158a.263.263 0 0 0-.18-.057.277.277 0 0 0-.174.048.147.147 0 0 0-.062.121v.004c0 .048.024.089.072.121s.121.063.215.091c.174.052.301.117.38.195s.119.174.119.289c0 .128-.049.23-.146.303s-.227.109-.392.109a.756.756 0 0 1-.312-.063.5.5 0 0 1-.214-.17l-.001-.002a.438.438 0 0 1-.073-.243v-.01h.306c0 .163.098.246.294.246a.289.289 0 0 0 .17-.044.146.146 0 0 0 .061-.118v-.006zm1.632-.847h-.454v1.236h-.306v-1.236h-.448v-.248h1.208v.248zm1.067.593h-.587v.398h.689v.246h-.994v-1.484h.993v.248h-.687v.354h.587v.239zm.831.1h-.243v.543h-.306v-1.484h.551c.175 0 .311.039.406.117s.143.189.143.331a.46.46 0 0 1-.066.254.45.45 0 0 1-.196.16l-.003.001.321.606v.014h-.328l-.278-.543zm-.243-.247h.247c.077 0 .136-.019.178-.058a.21.21 0 0 0 .063-.151v-.012.001c0-.07-.02-.125-.06-.165s-.1-.06-.183-.06h-.246v.445zm1.852.268v.523h-.306v-1.484h.579c.111 0 .209.021.294.061s.15.099.196.174c.045.075.068.16.068.256 0 .145-.05.26-.15.344s-.237.126-.413.126h-.268zm0-.248h.273c.081 0 .143-.019.184-.057.043-.038.064-.093.064-.163v-.011a.245.245 0 0 0-.064-.166.238.238 0 0 0-.177-.069h-.28v.466zm1.934.127h-.587v.398h.689v.246h-.994v-1.484h.993v.248h-.687v.354h.587v.239zm1.419-.593h-.455v1.236h-.306v-1.236h-.448v-.248h1.209v.248zm1.068.593h-.587v.398h.689v.246h-.994v-1.484h.992v.248h-.687v.354h.587v.239zm.83.1h-.243v.543h-.306v-1.484h.551c.175 0 .31.039.406.117s.143.189.143.331a.46.46 0 0 1-.066.254.45.45 0 0 1-.196.16l-.003.001.321.606v.014h-.328l-.278-.543zm-.243-.247H37c.077 0 .136-.019.178-.058a.213.213 0 0 0 .063-.162c0-.07-.02-.125-.06-.165s-.1-.06-.182-.06h-.246v.445zm1.796.401v-.009a.158.158 0 0 0-.061-.124.791.791 0 0 0-.22-.098 1.515 1.515 0 0 1-.26-.106l.009.004c-.169-.091-.253-.214-.253-.368 0-.08.022-.152.067-.214.046-.063.111-.112.195-.148s.18-.053.285-.053c.106 0 .2.019.283.058s.147.092.192.162c.046.07.07.15.07.238h-.306a.2.2 0 0 0-.064-.158.263.263 0 0 0-.18-.057.277.277 0 0 0-.174.048.147.147 0 0 0-.062.12v.004c0 .048.024.089.072.121s.121.063.215.091c.174.052.301.117.38.195s.119.174.119.289c0 .128-.049.23-.146.303s-.228.109-.392.109a.756.756 0 0 1-.312-.063.508.508 0 0 1-.214-.17l-.001-.002a.44.44 0 0 1-.074-.244v-.01h.307c0 .163.098.246.294.246a.289.289 0 0 0 .17-.044.147.147 0 0 0 .061-.119v-.006z"
      /></symbol>
<symbol id="icon-client5" viewBox="0 0 59 32"><path
        d="M20.437 21.125c.085.096.13.216.128.34l.001.026a.485.485 0 0 1-.048.212l.001-.003a.555.555 0 0 1-.151.193l-.001.001a.907.907 0 0 1-.577.157h.003-1.01v-2.153h.989l.058-.002c.182 0 .351.054.493.147l-.003-.002c.064.049.115.111.148.181s.048.146.044.223a.471.471 0 0 1-.115.329.542.542 0 0 1-.301.168.586.586 0 0 1 .341.184zm-1.184-.325h.423a.43.43 0 0 0 .269-.072.26.26 0 0 0 .071-.094l.001-.002a.24.24 0 0 0 .02-.094l-.001-.021v.001l.001-.018a.245.245 0 0 0-.02-.098l.001.002a.284.284 0 0 0-.07-.096.433.433 0 0 0-.278-.073h.002-.416v.565zm.733.826a.27.27 0 0 0 .077-.097l.001-.002a.247.247 0 0 0 .023-.103l-.001-.018v.001-.016a.262.262 0 0 0-.024-.108l.001.002a.275.275 0 0 0-.079-.099h-.001a.464.464 0 0 0-.259-.079l-.03.001h.001-.443v.592h.449a.478.478 0 0 0 .284-.075zm2.473.425-.55-.842h-.207v.842h-.473v-2.153h.896l.064-.002c.211 0 .405.07.562.187l-.002-.002a.663.663 0 0 1 .215.479.644.644 0 0 1-.149.413l.001-.001a.746.746 0 0 1-.423.218h-.004l.586.861h-.515zm-.757-1.135h.387c.269 0 .403-.109.403-.326v-.017a.291.291 0 0 0-.023-.115l.001.002a.303.303 0 0 0-.077-.111.446.446 0 0 0-.267-.089l-.039.002h.002-.392l.005.655zm3.345.701h-.943l-.167.434h-.496l.866-2.129h.537l.863 2.129h-.496l-.163-.433zm-.126-.326-.345-.909-.345.909h.689zm3.365.76h-.47l-1.054-1.464v1.464h-.469v-2.154h.469l1.054 1.473v-1.473h.47v2.154zm2.682-.515a.982.982 0 0 1-.425.38 1.47 1.47 0 0 1-.623.136l-.04-.001h.002-.836v-2.153h.876c.225 0 .439.049.631.137l-.01-.004a.967.967 0 0 1 .425.376 1.164 1.164 0 0 1 0 1.13zm-.538-.052a.75.75 0 0 0 .208-.514.75.75 0 0 0-.208-.514.863.863 0 0 0-.591-.183h.003-.326v1.394h.326a.862.862 0 0 0 .59-.184l-.002.001zM25.341 7.919s6.066 2.097 5.937 5.131v5.132s-6.061-2.097-5.935-5.132l-.002-5.131zm11.341 9.061a8.793 8.793 0 0 1 3.854-1.3v-1.607c-1.594.563-2.946 1.583-3.854 2.907z"
      /><path
        d="M35.994 17.464c.937-1.729 2.563-3.063 4.542-3.728V9.107s-8.638 2.987-8.456 7.307v7.306s.385-.134.991-.384c0-.233 0-.469.028-.706.178-2.006 1.22-3.864 2.895-5.168z"
      /><path
        d="M35.172 20.178a6.919 6.919 0 0 1 .302-1.496c-1.043 1.125-1.675 2.522-1.806 3.993a5.81 5.81 0 0 0-.023.421 23.846 23.846 0 0 0 1.801-.87l-.139.068a6.936 6.936 0 0 1-.134-2.116zm.343.027a6.687 6.687 0 0 0 .115 1.959l-.008-.043c2.36-1.293 5.012-3.291 4.91-5.705v-.21c-1.686.173-3.264.848-4.49 1.921a6.563 6.563 0 0 0-.524 2.053l-.002.026z"
      /></symbol>
<symbol id="icon-client6" viewBox="0 0 59 32"><path
        d="M29.713 15.098a1.017 1.017 0 0 1-.211-.695v.003-1.003c0-.307.07-.541.209-.701s.379-.239.718-.239c.319 0 .546.068.68.204a.833.833 0 0 1 .201.6v.236h-.57v-.239a1.148 1.148 0 0 0-.017-.234.225.225 0 0 0-.081-.138.324.324 0 0 0-.183-.055l-.025.001h.001l-.024-.001a.347.347 0 0 0-.194.059l.001-.001a.268.268 0 0 0-.094.151v.002a1.169 1.169 0 0 0-.023.229v.02-.001 1.217a.624.624 0 0 0 .073.342c.03.037.068.065.112.082l.002.001a.3.3 0 0 0 .149.019h-.001l.024.001a.305.305 0 0 0 .179-.057l-.001.001a.246.246 0 0 0 .085-.146v-.001a1.33 1.33 0 0 0 .018-.244v-.247h.571v.225l.002.06a.912.912 0 0 1-.201.573l.001-.002c-.131.149-.355.223-.683.223s-.577-.08-.717-.245zm2.376.011c-.144-.157-.216-.384-.216-.685v-1.055c0-.298.072-.523.216-.677s.385-.229.723-.229c.336 0 .575.077.72.229.144.153.217.378.217.677v1.055c0 .298-.073.527-.22.684s-.385.235-.717.235-.578-.08-.723-.234zm.989-.253a.59.59 0 0 0 .069-.312v-1.292l.001-.035a.564.564 0 0 0-.07-.274l.002.003a.273.273 0 0 0-.115-.083l-.002-.001a.31.31 0 0 0-.152-.017h.002c-.012-.002-.025-.002-.039-.002a.34.34 0 0 0-.115.021l.002-.001a.284.284 0 0 0-.117.083v.001a.571.571 0 0 0-.069.306v1.298a.572.572 0 0 0 .069.312.385.385 0 0 0 .267.105c.053 0 .103-.01.149-.029l-.003.001a.364.364 0 0 0 .12-.077v-.006zm1.358-2.361h.614l.462 1.946.473-1.946h.598l.061 2.809h-.442l-.047-1.952-.456 1.952h-.354l-.473-1.959-.044 1.959h-.447l.056-2.809zm2.896 0h.957c.551 0 .827.266.827.798 0 .509-.29.764-.871.763h-.326v1.248h-.591l.003-2.809zm.818 1.201a.444.444 0 0 0 .325-.089.451.451 0 0 0 .085-.317l.001-.031a.912.912 0 0 0-.03-.23l.001.006a.19.19 0 0 0-.044-.077.25.25 0 0 0-.073-.056l-.001-.001a.605.605 0 0 0-.233-.046l-.032.001h.002-.229v.84h.229zm1.818-1.201h.635l.651 2.809h-.551l-.129-.648h-.566l-.133.648h-.559l.651-2.809zm.543 1.836-.221-1.179-.221 1.179h.442zm1.269-1.836h.414l.792 1.602v-1.602h.49v2.809h-.393l-.797-1.673v1.673h-.507l.001-2.809zm2.844 1.738-.658-1.734h.554l.402 1.114.377-1.114h.543l-.65 1.734v1.071h-.567v-1.071zm-13.999 2.3v.147h-.482v1.142h-.202V16.68h-.485v-.147h1.169zm1.512 1.288h-.16a.078.078 0 0 1-.04-.012.073.073 0 0 1-.026-.029l-.139-.306h-.669l-.139.306a.08.08 0 0 1-.022.035.068.068 0 0 1-.04.012h-.16l.591-1.288h.206l.598 1.283zm-.979-.478h.558l-.237-.525a.845.845 0 0 1-.042-.115l-.002-.007-.022.069-.022.054-.234.523zm1.997.352a.736.736 0 0 0 .29-.038c.026-.009.052-.021.079-.032v-.29h-.238a.046.046 0 0 1-.03-.011.028.028 0 0 1-.009-.01.021.021 0 0 1-.003-.012v-.1h.458v.494a.852.852 0 0 1-.243.103l-.006.001a1.069 1.069 0 0 1-.148.027 1.656 1.656 0 0 1-.173.008h-.008a.912.912 0 0 1-.297-.05l.006.002a.726.726 0 0 1-.237-.135l.001.001a.63.63 0 0 1-.151-.2l-.002-.004a.638.638 0 0 1-.054-.259v-.017c0-.094.02-.184.055-.266l-.002.004a.59.59 0 0 1 .152-.204.726.726 0 0 1 .237-.134 1.12 1.12 0 0 1 .481-.037.85.85 0 0 1 .259.084.79.79 0 0 1 .103.067l-.057.08a.052.052 0 0 1-.019.017.06.06 0 0 1-.027.007.079.079 0 0 1-.037-.01.566.566 0 0 1-.061-.032l.003.002a.582.582 0 0 0-.075-.034l-.004-.001a.68.68 0 0 0-.104-.028l-.005-.001a.9.9 0 0 0-.142-.011h-.015a.704.704 0 0 0-.226.037l.005-.001a.497.497 0 0 0-.174.102.437.437 0 0 0-.108.157l-.001.003a.596.596 0 0 0 .001.434l-.001-.004a.503.503 0 0 0 .29.264.658.658 0 0 0 .234.025zm1.884-.021h.645v.147h-.842v-1.288h.202l-.005 1.142zm1.316.147h-.202v-1.288h.202v1.288zm.751-1.282a.12.12 0 0 1 .031.023l.864.971L38 17.51l.001-.024v.001-.96h.176v1.294h-.109a.1.1 0 0 1-.038-.008h.001a.128.128 0 0 1-.032-.024l-.863-.97v1.002h-.169v-1.288h.105c.011 0 .023.002.033.006zm2.559-.006v.142h-.716v.425h.58v.137h-.58v.44h.716v.142h-.924v-1.285h.924zM18.491 8.576l8.972 2.2v7.707l-8.972-2.198V8.576zm-.576-.657v8.739l10.122 2.482v-8.739L17.915 7.918z"
      /><path d="m23.341 23.197-10.123-2.484v-8.739l10.123 2.483v8.739z" /><path
        d="m18.083 8.477 8.855 2.172-3.766 3.252-8.857-2.173 3.767-3.251zm-.168-.558-4.698 4.056 10.123 2.483 4.697-4.056-10.122-2.483zm5.995 14.787 4.128-3.564-4.128-1.013v4.577z"
      /></symbol>              
      </defs></svg>
